<?xml version="1.0" encoding="utf-8" standalone="no"?>
<!DOCTYPE svg PUBLIC "-//W3C//DTD SVG 1.1//EN"
  "http://www.w3.org/Graphics/SVG/1.1/DTD/svg11.dtd">
<svg xmlns:xlink="http://www.w3.org/1999/xlink" width="538.582677pt" height="204.094488pt" viewBox="0 0 538.582677 204.094488" xmlns="http://www.w3.org/2000/svg" version="1.1">
 <metadata>
  <rdf:RDF xmlns:dc="http://purl.org/dc/elements/1.1/" xmlns:cc="http://creativecommons.org/ns#" xmlns:rdf="http://www.w3.org/1999/02/22-rdf-syntax-ns#">
   <cc:Work>
    <dc:type rdf:resource="http://purl.org/dc/dcmitype/StillImage"/>
    <dc:date>2026-06-15T11:23:54.350499</dc:date>
    <dc:format>image/svg+xml</dc:format>
    <dc:creator>
     <cc:Agent>
      <dc:title>Matplotlib v3.10.8, https://matplotlib.org/</dc:title>
     </cc:Agent>
    </dc:creator>
   </cc:Work>
  </rdf:RDF>
 </metadata>
 <defs>
  <style type="text/css">*{stroke-linejoin: round; stroke-linecap: butt}</style>
 </defs>
 <g id="figure_1">
  <g id="patch_1">
   <path d="M 0 204.094488 
L 538.582677 204.094488 
L 538.582677 0 
L 0 0 
z
" style="fill: #ffffff"/>
  </g>
  <g id="axes_1">
   <g id="patch_2">
    <path d="M 17.773228 121.727784 
L 86.711811 121.727784 
Q 87.250394 121.727784 87.250394 120.998875 
L 87.250394 30.614173 
Q 87.250394 29.885264 86.711811 29.885264 
L 17.773228 29.885264 
Q 17.234646 29.885264 17.234646 30.614173 
L 17.234646 120.998875 
Q 17.234646 121.727784 17.773228 121.727784 
z
" clip-path="url(#pc3b827a1b1)" style="fill: #ffffff; stroke: #d9e2ea; stroke-width: 0.65; stroke-linejoin: miter"/>
   </g>
   <g id="patch_3">
    <path d="M 102.869291 121.727784 
L 180.96378 121.727784 
Q 181.502362 121.727784 181.502362 120.998875 
L 181.502362 30.614173 
Q 181.502362 29.885264 180.96378 29.885264 
L 102.869291 29.885264 
Q 102.330709 29.885264 102.330709 30.614173 
L 102.330709 120.998875 
Q 102.330709 121.727784 102.869291 121.727784 
z
" clip-path="url(#pc3b827a1b1)" style="fill: #ffffff; stroke: #d9e2ea; stroke-width: 0.65; stroke-linejoin: miter"/>
   </g>
   <g id="patch_4">
    <path d="M 198.737008 121.727784 
L 281.67874 121.727784 
Q 282.217323 121.727784 282.217323 120.998875 
L 282.217323 30.614173 
Q 282.217323 29.885264 281.67874 29.885264 
L 198.737008 29.885264 
Q 198.198425 29.885264 198.198425 30.614173 
L 198.198425 120.998875 
Q 198.198425 121.727784 198.737008 121.727784 
z
" clip-path="url(#pc3b827a1b1)" style="fill: #ffffff; stroke: #d9e2ea; stroke-width: 0.65; stroke-linejoin: miter"/>
   </g>
   <g id="patch_5">
    <path d="M 415.785827 121.727784 
L 521.886614 121.727784 
Q 522.425197 121.727784 522.425197 120.998875 
L 522.425197 30.614173 
Q 522.425197 29.885264 521.886614 29.885264 
L 415.785827 29.885264 
Q 415.247244 29.885264 415.247244 30.614173 
L 415.247244 120.998875 
Q 415.247244 121.727784 415.785827 121.727784 
z
" clip-path="url(#pc3b827a1b1)" style="fill: #ffffff; stroke: #d9e2ea; stroke-width: 0.65; stroke-linejoin: miter"/>
   </g>
   <g id="patch_6">
    <path d="M 421.063937 71.068616 
L 516.608504 71.068616 
Q 517.03937 71.068616 517.03937 70.485489 
L 517.03937 58.531384 
Q 517.03937 57.948256 516.608504 57.948256 
L 421.063937 57.948256 
Q 420.633071 57.948256 420.633071 58.531384 
L 420.633071 70.485489 
Q 420.633071 71.068616 421.063937 71.068616 
z
" clip-path="url(#pc3b827a1b1)" style="fill: #eaf3fa; stroke: #c8dae8; stroke-width: 0.42; stroke-linejoin: miter"/>
   </g>
   <g id="patch_7">
    <path d="M 421.063937 88.56243 
L 516.608504 88.56243 
Q 517.03937 88.56243 517.03937 87.979303 
L 517.03937 76.025197 
Q 517.03937 75.44207 516.608504 75.44207 
L 421.063937 75.44207 
Q 420.633071 75.44207 420.633071 76.025197 
L 420.633071 87.979303 
Q 420.633071 88.56243 421.063937 88.56243 
z
" clip-path="url(#pc3b827a1b1)" style="fill: #f7f9fb; stroke: #d9e2ea; stroke-width: 0.42; stroke-linejoin: miter"/>
   </g>
   <g id="patch_8">
    <path d="M 113.640945 178.218223 
L 424.941732 178.218223 
Q 425.480315 178.218223 425.480315 177.489314 
L 425.480315 157.079865 
Q 425.480315 156.350956 424.941732 156.350956 
L 113.640945 156.350956 
Q 113.102362 156.350956 113.102362 157.079865 
L 113.102362 177.489314 
Q 113.102362 178.218223 113.640945 178.218223 
z
" clip-path="url(#pc3b827a1b1)" style="fill: #fbeded; stroke: #e2b6b6; stroke-width: 0.5; stroke-linejoin: miter"/>
   </g>
   <g id="patch_9">
    <path d="M 298.267087 146.510686 
L 398.658898 146.510686 
Q 399.628346 146.510686 399.628346 145.19865 
L 399.628346 6.414398 
Q 399.628346 5.102362 398.658898 5.102362 
L 298.267087 5.102362 
Q 297.297638 5.102362 297.297638 6.414398 
L 297.297638 145.19865 
Q 297.297638 146.510686 298.267087 146.510686 
z
" clip-path="url(#pc3b827a1b1)" style="fill: #eef6fc; stroke: #7da9c8; stroke-width: 0.95; stroke-linejoin: miter"/>
   </g>
   <g id="line2d_1">
    <path d="M 313.455118 65.237345 
L 339.845669 65.237345 
" clip-path="url(#pc3b827a1b1)" style="fill: none; stroke: #c8dae8; stroke-width: 2.75; stroke-linecap: round"/>
   </g>
   <g id="line2d_2">
    <path d="M 313.455118 88.56243 
L 339.845669 88.56243 
" clip-path="url(#pc3b827a1b1)" style="fill: none; stroke: #c8dae8; stroke-width: 2.75; stroke-linecap: round"/>
   </g>
   <g id="line2d_3">
    <path d="M 354.656693 74.713161 
L 385.355906 74.713161 
" clip-path="url(#pc3b827a1b1)" style="fill: none; stroke: #c8dae8; stroke-width: 2.75; stroke-linecap: round"/>
   </g>
   <g id="line2d_4">
    <path d="M 354.656693 98.767154 
L 385.355906 98.767154 
" clip-path="url(#pc3b827a1b1)" style="fill: none; stroke: #c8dae8; stroke-width: 2.75; stroke-linecap: round"/>
   </g>
   <g id="line2d_5">
    <path d="M 348.732283 117.354331 
L 348.732283 56.125984 
" clip-path="url(#pc3b827a1b1)" style="fill: none; stroke-dasharray: 2.46,1.64; stroke-dashoffset: 0; stroke: #7da9c8; stroke-width: 0.82"/>
   </g>
   <g id="line2d_6">
    <path d="M 208.162205 84.407649 
L 221.088189 84.407649 
" clip-path="url(#pc3b827a1b1)" style="fill: none; stroke: #1f5578; stroke-width: 1.25; stroke-linecap: round"/>
   </g>
   <g id="line2d_7">
    <path d="M 234.552756 84.407649 
L 247.47874 84.407649 
" clip-path="url(#pc3b827a1b1)" style="fill: none; stroke: #3d9a92; stroke-width: 1.25; stroke-linecap: round"/>
   </g>
   <g id="line2d_8">
    <path d="M 261.48189 84.407649 
L 274.407874 84.407649 
" clip-path="url(#pc3b827a1b1)" style="fill: none; stroke: #6d7d8e; stroke-width: 1.25; stroke-linecap: round"/>
   </g>
   <g id="patch_10">
    <path d="M 90.212598 73.619798 
Q 95.059843 73.619798 98.844954 73.619798 
" clip-path="url(#pc3b827a1b1)" style="fill: none; stroke: #6f7d89; stroke-width: 0.95; stroke-linecap: round"/>
    <path d="M 95.244954 71.819798 
L 98.844954 73.619798 
L 95.244954 75.419798 
z
" clip-path="url(#pc3b827a1b1)" style="fill: #6f7d89; stroke: #6f7d89; stroke-width: 0.95; stroke-linecap: round"/>
   </g>
   <g id="patch_11">
    <path d="M 184.464567 73.619798 
Q 190.119685 73.619798 194.712671 73.619798 
" clip-path="url(#pc3b827a1b1)" style="fill: none; stroke: #6f7d89; stroke-width: 0.95; stroke-linecap: round"/>
    <path d="M 191.112671 71.819798 
L 194.712671 73.619798 
L 191.112671 75.419798 
z
" clip-path="url(#pc3b827a1b1)" style="fill: #6f7d89; stroke: #6f7d89; stroke-width: 0.95; stroke-linecap: round"/>
   </g>
   <g id="patch_12">
    <path d="M 285.179528 73.619798 
Q 289.75748 73.619798 293.273301 73.619798 
" clip-path="url(#pc3b827a1b1)" style="fill: none; stroke: #6f7d89; stroke-width: 0.95; stroke-linecap: round"/>
    <path d="M 289.673301 71.819798 
L 293.273301 73.619798 
L 289.673301 75.419798 
z
" clip-path="url(#pc3b827a1b1)" style="fill: #6f7d89; stroke: #6f7d89; stroke-width: 0.95; stroke-linecap: round"/>
   </g>
   <g id="patch_13">
    <path d="M 402.590551 73.619798 
Q 407.707087 73.619798 411.76149 73.619798 
" clip-path="url(#pc3b827a1b1)" style="fill: none; stroke: #6f7d89; stroke-width: 0.95; stroke-linecap: round"/>
    <path d="M 408.16149 71.819798 
L 411.76149 73.619798 
L 408.16149 75.419798 
z
" clip-path="url(#pc3b827a1b1)" style="fill: #6f7d89; stroke: #6f7d89; stroke-width: 0.95; stroke-linecap: round"/>
   </g>
   <g id="PathCollection_1">
    <defs>
     <path id="mbca48efd8e" d="M 0 2.738613 
C 0.726289 2.738613 1.422928 2.450055 1.936492 1.936492 
C 2.450055 1.422928 2.738613 0.726289 2.738613 0 
C 2.738613 -0.726289 2.450055 -1.422928 1.936492 -1.936492 
C 1.422928 -2.450055 0.726289 -2.738613 0 -2.738613 
C -0.726289 -2.738613 -1.422928 -2.450055 -1.936492 -1.936492 
C -2.450055 -1.422928 -2.738613 -0.726289 -2.738613 0 
C -2.738613 0.726289 -2.450055 1.422928 -1.936492 1.936492 
C -1.422928 2.450055 -0.726289 2.738613 0 2.738613 
z
" style="stroke: #ffffff; stroke-width: 0.55"/>
    </defs>
    <g clip-path="url(#pc3b827a1b1)">
     <use xlink:href="#mbca48efd8e" x="124.304882" y="70.339708" style="fill: #4f86b3; stroke: #ffffff; stroke-width: 0.55"/>
    </g>
   </g>
   <g id="PathCollection_2">
    <g clip-path="url(#pc3b827a1b1)">
     <use xlink:href="#mbca48efd8e" x="129.529134" y="70.339708" style="fill: #4f86b3; stroke: #ffffff; stroke-width: 0.55"/>
    </g>
   </g>
   <g id="PathCollection_3">
    <g clip-path="url(#pc3b827a1b1)">
     <use xlink:href="#mbca48efd8e" x="134.753386" y="70.339708" style="fill: #4f86b3; stroke: #ffffff; stroke-width: 0.55"/>
    </g>
   </g>
   <g id="PathCollection_4">
    <g clip-path="url(#pc3b827a1b1)">
     <use xlink:href="#mbca48efd8e" x="139.977638" y="70.339708" style="fill: #4f86b3; stroke: #ffffff; stroke-width: 0.55"/>
    </g>
   </g>
   <g id="PathCollection_5">
    <defs>
     <path id="meda9bf79de" d="M 0 -2.738613 
L -2.738613 2.738613 
L 2.738613 2.738613 
z
" style="stroke: #ffffff; stroke-width: 0.55"/>
    </defs>
    <g clip-path="url(#pc3b827a1b1)">
     <use xlink:href="#meda9bf79de" x="124.304882" y="82.148031" style="fill: #3d9a92; stroke: #ffffff; stroke-width: 0.55"/>
    </g>
   </g>
   <g id="PathCollection_6">
    <g clip-path="url(#pc3b827a1b1)">
     <use xlink:href="#meda9bf79de" x="129.529134" y="82.148031" style="fill: #3d9a92; stroke: #ffffff; stroke-width: 0.55"/>
    </g>
   </g>
   <g id="PathCollection_7">
    <g clip-path="url(#pc3b827a1b1)">
     <use xlink:href="#meda9bf79de" x="134.753386" y="82.148031" style="fill: #3d9a92; stroke: #ffffff; stroke-width: 0.55"/>
    </g>
   </g>
   <g id="PathCollection_8">
    <defs>
     <path id="m3df9f1c6c8" d="M -2.738613 2.738613 
L 2.738613 2.738613 
L 2.738613 -2.738613 
L -2.738613 -2.738613 
z
" style="stroke: #ffffff; stroke-width: 0.55"/>
    </defs>
    <g clip-path="url(#pc3b827a1b1)">
     <use xlink:href="#m3df9f1c6c8" x="124.304882" y="93.956355" style="fill: #6d7d8e; stroke: #ffffff; stroke-width: 0.55"/>
    </g>
   </g>
   <g id="PathCollection_9">
    <g clip-path="url(#pc3b827a1b1)">
     <use xlink:href="#m3df9f1c6c8" x="129.529134" y="93.956355" style="fill: #6d7d8e; stroke: #ffffff; stroke-width: 0.55"/>
    </g>
   </g>
   <g id="PathCollection_10">
    <g clip-path="url(#pc3b827a1b1)">
     <use xlink:href="#m3df9f1c6c8" x="134.753386" y="93.956355" style="fill: #6d7d8e; stroke: #ffffff; stroke-width: 0.55"/>
    </g>
   </g>
   <g id="PathCollection_11">
    <g clip-path="url(#pc3b827a1b1)">
     <use xlink:href="#m3df9f1c6c8" x="139.977638" y="93.956355" style="fill: #6d7d8e; stroke: #ffffff; stroke-width: 0.55"/>
    </g>
   </g>
   <g id="PathCollection_12">
    <defs>
     <path id="mef2a66b0b4" d="M 0 2.783882 
C 0.738294 2.783882 1.446449 2.490555 1.968502 1.968502 
C 2.490555 1.446449 2.783882 0.738294 2.783882 0 
C 2.783882 -0.738294 2.490555 -1.446449 1.968502 -1.968502 
C 1.446449 -2.490555 0.738294 -2.783882 0 -2.783882 
C -0.738294 -2.783882 -1.446449 -2.490555 -1.968502 -1.968502 
C -2.490555 -1.446449 -2.783882 -0.738294 -2.783882 0 
C -2.783882 0.738294 -2.490555 1.446449 -1.968502 1.968502 
C -1.446449 2.490555 -0.738294 2.783882 0 2.783882 
z
" style="stroke: #ffffff; stroke-width: 0.55"/>
    </defs>
    <g clip-path="url(#pc3b827a1b1)">
     <use xlink:href="#mef2a66b0b4" x="317.76378" y="65.237345" style="fill: #4f86b3; stroke: #ffffff; stroke-width: 0.55"/>
    </g>
   </g>
   <g id="PathCollection_13">
    <g clip-path="url(#pc3b827a1b1)">
     <use xlink:href="#mef2a66b0b4" x="323.688189" y="65.237345" style="fill: #4f86b3; stroke: #ffffff; stroke-width: 0.55"/>
    </g>
   </g>
   <g id="PathCollection_14">
    <g clip-path="url(#pc3b827a1b1)">
     <use xlink:href="#mef2a66b0b4" x="329.612598" y="65.237345" style="fill: #4f86b3; stroke: #ffffff; stroke-width: 0.55"/>
    </g>
   </g>
   <g id="PathCollection_15">
    <g clip-path="url(#pc3b827a1b1)">
     <use xlink:href="#mef2a66b0b4" x="335.537008" y="65.237345" style="fill: #4f86b3; stroke: #ffffff; stroke-width: 0.55"/>
    </g>
   </g>
   <g id="PathCollection_16">
    <defs>
     <path id="mf0f924c6c5" d="M -2.783882 2.783882 
L 2.783882 2.783882 
L 2.783882 -2.783882 
L -2.783882 -2.783882 
z
" style="stroke: #ffffff; stroke-width: 0.55"/>
    </defs>
    <g clip-path="url(#pc3b827a1b1)">
     <use xlink:href="#mf0f924c6c5" x="317.76378" y="88.56243" style="fill: #6d7d8e; stroke: #ffffff; stroke-width: 0.55"/>
    </g>
   </g>
   <g id="PathCollection_17">
    <g clip-path="url(#pc3b827a1b1)">
     <use xlink:href="#mf0f924c6c5" x="323.688189" y="88.56243" style="fill: #6d7d8e; stroke: #ffffff; stroke-width: 0.55"/>
    </g>
   </g>
   <g id="PathCollection_18">
    <g clip-path="url(#pc3b827a1b1)">
     <use xlink:href="#mf0f924c6c5" x="329.612598" y="88.56243" style="fill: #6d7d8e; stroke: #ffffff; stroke-width: 0.55"/>
    </g>
   </g>
   <g id="PathCollection_19">
    <defs>
     <path id="m22b5d55c8a" d="M 0 -2.783882 
L -2.783882 2.783882 
L 2.783882 2.783882 
z
" style="stroke: #ffffff; stroke-width: 0.55"/>
    </defs>
    <g clip-path="url(#pc3b827a1b1)">
     <use xlink:href="#m22b5d55c8a" x="358.965354" y="74.713161" style="fill: #3d9a92; stroke: #ffffff; stroke-width: 0.55"/>
    </g>
   </g>
   <g id="PathCollection_20">
    <g clip-path="url(#pc3b827a1b1)">
     <use xlink:href="#m22b5d55c8a" x="364.889764" y="74.713161" style="fill: #3d9a92; stroke: #ffffff; stroke-width: 0.55"/>
    </g>
   </g>
   <g id="PathCollection_21">
    <g clip-path="url(#pc3b827a1b1)">
     <use xlink:href="#m22b5d55c8a" x="370.814173" y="74.713161" style="fill: #3d9a92; stroke: #ffffff; stroke-width: 0.55"/>
    </g>
   </g>
   <g id="PathCollection_22">
    <defs>
     <path id="mdc1213d109" d="M -0 3.937004 
L 3.937004 0 
L 0 -3.937004 
L -3.937004 -0 
z
" style="stroke: #ffffff; stroke-width: 0.55"/>
    </defs>
    <g clip-path="url(#pc3b827a1b1)">
     <use xlink:href="#mdc1213d109" x="358.965354" y="98.767154" style="fill: #8b949e; stroke: #ffffff; stroke-width: 0.55"/>
    </g>
   </g>
   <g id="PathCollection_23">
    <g clip-path="url(#pc3b827a1b1)">
     <use xlink:href="#mdc1213d109" x="364.889764" y="98.767154" style="fill: #8b949e; stroke: #ffffff; stroke-width: 0.55"/>
    </g>
   </g>
   <g id="PathCollection_24">
    <g clip-path="url(#pc3b827a1b1)">
     <use xlink:href="#mdc1213d109" x="370.814173" y="98.767154" style="fill: #8b949e; stroke: #ffffff; stroke-width: 0.55"/>
    </g>
   </g>
   <g id="text_1">
    <text style="font-weight: 700; font-size: 7px; font-family: 'Arimo'; text-anchor: middle; fill: #1d2933" x="52.24252" y="46.273598" transform="rotate(-0 52.24252 46.273598)">Literature records</text>
   </g>
   <g id="text_2">
    <text style="font-size: 6.05px; font-family: 'Arimo'; text-anchor: start; fill: #1d2933" x="23.697638" y="66.072929" transform="rotate(-0 23.697638 66.072929)">OH- conductivity</text>
   </g>
   <g id="text_3">
    <text style="font-size: 5.85px; font-family: 'Arimo'; text-anchor: start; fill: #65727d" x="23.697638" y="79.870479" transform="rotate(-0 23.697638 79.870479)">T / IEC / thickness</text>
   </g>
   <g id="text_4">
    <text style="font-size: 5.85px; font-family: 'Arimo'; text-anchor: start; fill: #65727d" x="23.697638" y="92.990839" transform="rotate(-0 23.697638 92.990839)">conditioning / test</text>
   </g>
   <g id="text_5">
    <text style="font-size: 5.85px; font-family: 'Arimo'; text-anchor: start; fill: #65727d" x="23.697638" y="106.111199" transform="rotate(-0 23.697638 106.111199)">source context</text>
   </g>
   <g id="text_6">
    <text style="font-weight: 700; font-size: 6.65px; font-family: 'Arimo'; fill: #1d2933" transform="translate(109.779891 43.035375)">Condition-expanded</text>
    <text style="font-weight: 700; font-size: 6.65px; font-family: 'Arimo'; fill: #1d2933" transform="translate(134.156297 49.330806)">rows</text>
   </g>
   <g id="text_7">
    <text style="font-size: 5.85px; font-family: 'Arimo'; text-anchor: start; fill: #1d2933" x="108.793701" y="71.852481" transform="rotate(-0 108.793701 71.852481)">P1</text>
   </g>
   <g id="text_8">
    <text style="font-size: 5.85px; font-family: 'Arimo'; text-anchor: middle; fill: #65727d" x="155.919685" y="71.852481" transform="rotate(-0 155.919685 71.852481)">...</text>
   </g>
   <g id="text_9">
    <text style="font-size: 5.85px; font-family: 'Arimo'; text-anchor: start; fill: #1d2933" x="108.793701" y="83.660805" transform="rotate(-0 108.793701 83.660805)">P2</text>
   </g>
   <g id="text_10">
    <text style="font-size: 5.85px; font-family: 'Arimo'; text-anchor: middle; fill: #65727d" x="155.919685" y="83.660805" transform="rotate(-0 155.919685 83.660805)">...</text>
   </g>
   <g id="text_11">
    <text style="font-size: 5.85px; font-family: 'Arimo'; text-anchor: start; fill: #1d2933" x="108.793701" y="95.469129" transform="rotate(-0 108.793701 95.469129)">P3</text>
   </g>
   <g id="text_12">
    <text style="font-size: 5.85px; font-family: 'Arimo'; text-anchor: middle; fill: #65727d" x="155.919685" y="95.469129" transform="rotate(-0 155.919685 95.469129)">...</text>
   </g>
   <g id="text_13">
    <text style="font-weight: 700; font-size: 5.55px; font-family: 'Arimo'; fill: #1d2933" transform="translate(116.931563 110.735889)">2,049 observations</text>
    <text style="font-weight: 700; font-size: 5.55px; font-family: 'Arimo'; fill: #1d2933" transform="translate(124.178215 115.90953)">463 polymers</text>
   </g>
   <g id="text_14">
    <text style="font-weight: 700; font-size: 7px; font-family: 'Arimo'; text-anchor: middle; fill: #1d2933" x="240.207874" y="46.273598" transform="rotate(-0 240.207874 46.273598)">Candidate descriptors</text>
   </g>
   <g id="text_15">
    <text style="font-size: 5.85px; font-family: 'Arimo'; text-anchor: middle; fill: #65727d" x="240.207874" y="64.927847" transform="rotate(-0 240.207874 64.927847)">target: log10 conductivity</text>
   </g>
   <g id="text_16">
    <text style="font-weight: 700; font-size: 6px; font-family: 'Arimo'; text-anchor: middle; fill: #1f5578" x="214.625197" y="81.73154" transform="rotate(-0 214.625197 81.73154)">BASE</text>
   </g>
   <g id="text_17">
    <text style="font-weight: 700; font-size: 6px; font-family: 'Arimo'; text-anchor: middle; fill: #3d9a92" x="241.015748" y="81.73154" transform="rotate(-0 241.015748 81.73154)">GENERIC</text>
   </g>
   <g id="text_18">
    <text style="font-weight: 700; font-size: 6px; font-family: 'Arimo'; text-anchor: middle; fill: #6d7d8e" x="267.944882" y="81.73154" transform="rotate(-0 267.944882 81.73154)">AEM</text>
   </g>
   <g id="text_19">
    <text style="font-size: 5.45px; font-family: 'Arimo'; fill: #65727d" transform="translate(213.999335 95.350814)">candidate pool before</text>
    <text style="font-size: 5.45px; font-family: 'Arimo'; fill: #65727d" transform="translate(217.944624 100.628713)">fold-wise selection</text>
   </g>
   <g id="text_20">
    <text style="font-size: 5.1px; font-family: 'Arimo'; text-anchor: middle; fill: #65727d" x="240.207874" y="113.570797" transform="rotate(-0 240.207874 113.570797)">keys: polymer / family / source</text>
   </g>
   <g id="text_21">
    <text style="font-weight: 700; font-size: 7.55px; font-family: 'Arimo'; text-anchor: middle; fill: #1f5578" x="348.462992" y="22.345316" transform="rotate(-0 348.462992 22.345316)">Polymer identity gate</text>
   </g>
   <g id="text_22">
    <text style="font-size: 6.05px; font-family: 'Arimo'; text-anchor: middle; fill: #65727d" x="348.462992" y="34.365392" transform="rotate(-0 348.462992 34.365392)">zero polymer overlap</text>
   </g>
   <g id="text_23">
    <text style="font-weight: 700; font-size: 5.5px; font-family: 'Arimo'; fill: #1f5578" transform="translate(316.568206 48.173376)">training</text>
    <text style="font-weight: 700; font-size: 5.5px; font-family: 'Arimo'; fill: #1f5578" transform="translate(314.423636 53.802764)">polymers</text>
   </g>
   <g id="text_24">
    <text style="font-weight: 700; font-size: 5.5px; font-family: 'Arimo'; fill: #1f5578" transform="translate(360.240301 48.185407)">held-out</text>
    <text style="font-weight: 700; font-size: 5.5px; font-family: 'Arimo'; fill: #1f5578" transform="translate(358.856707 53.790732)">polymers</text>
   </g>
   <g id="text_25">
    <text style="font-size: 5.35px; font-family: 'Arimo'; text-anchor: middle; fill: #65727d" x="348.462992" y="135.867166" transform="rotate(-0 348.462992 135.867166)">held-out rows excluded from training</text>
   </g>
   <g id="text_26">
    <text style="font-weight: 700; font-size: 7px; font-family: 'Arimo'; text-anchor: middle; fill: #1d2933" x="468.83622" y="46.273598" transform="rotate(-0 468.83622 46.273598)">Fold-wise validation</text>
   </g>
   <g id="text_27">
    <text style="font-weight: 700; font-size: 5.4px; font-family: 'Arimo'; text-anchor: start; fill: #1f5578" x="423.056693" y="65.904843" transform="rotate(-0 423.056693 65.904843)">Train: preprocess / select / fit</text>
   </g>
   <g id="text_28">
    <text style="font-weight: 700; font-size: 5.4px; font-family: 'Arimo'; text-anchor: start; fill: #6d7d8e" x="423.056693" y="83.398656" transform="rotate(-0 423.056693 83.398656)">Hold-out: transform / predict</text>
   </g>
   <g id="text_29">
    <text style="font-weight: 700; font-size: 5.5px; font-family: 'Arimo'; text-anchor: start; fill: #1d2933" x="421.171654" y="103.311697" transform="rotate(-0 421.171654 103.311697)">Primary: group CV R² = 0.805</text>
   </g>
   <g id="text_30">
    <text style="font-size: 5px; font-family: 'Arimo'; text-anchor: start; fill: #65727d" x="421.171654" y="110.48352" transform="rotate(-0 421.171654 110.48352)">AEM profiles: follow-up axes</text>
   </g>
   <g id="text_31">
    <text style="font-size: 5px; font-family: 'Arimo'; text-anchor: start; fill: #65727d" x="421.171654" y="117.0437" transform="rotate(-0 421.171654 117.0437)">Support/source boundaries</text>
   </g>
   <g id="text_32">
    <text style="font-weight: 700; font-size: 5.65px; font-family: 'Arimo'; text-anchor: middle; fill: #b96363" x="269.291339" y="165.453195" transform="rotate(-0 269.291339 165.453195)">Leakage-prone control: random row-wise split</text>
   </g>
   <g id="text_33">
    <text style="font-size: 5.1px; font-family: 'Arimo'; text-anchor: middle; fill: #7a4545" x="269.291339" y="173.122653" transform="rotate(-0 269.291339 173.122653)">same-polymer rows may cross train/test -&gt; row-wise control R² = 0.940</text>
   </g>
  </g>
 </g>
 <defs>
  <clipPath id="pc3b827a1b1">
   <rect x="0" y="0" width="538.582677" height="204.094488"/>
  </clipPath>
 </defs>
</svg>
