<?xml version="1.0" encoding="utf-8" standalone="no"?>
<!DOCTYPE svg PUBLIC "-//W3C//DTD SVG 1.1//EN"
  "http://www.w3.org/Graphics/SVG/1.1/DTD/svg11.dtd">
<svg xmlns:xlink="http://www.w3.org/1999/xlink" width="784.44pt" height="419.022pt" viewBox="0 0 784.44 419.022" xmlns="http://www.w3.org/2000/svg" version="1.1">
 <defs>
  <style type="text/css">*{stroke-linejoin: round; stroke-linecap: butt}</style>
 </defs>
 <g id="figure_1">
  <g id="patch_1">
   <path d="M 0 419.022 
L 784.44 419.022 
L 784.44 0 
L 0 0 
z
" style="fill: #ffffff"/>
  </g>
  <g id="axes_1">
   <g id="patch_2">
    <path d="M 410.378182 228.942 
C 410.378182 204.926418 405.647636 181.144358 396.457271 158.956854 
C 387.266906 136.76935 373.795451 116.607892 356.81387 99.626312 
C 339.832289 82.644731 319.670832 69.173276 297.483328 59.982911 
C 275.295824 50.792546 251.513763 46.062 227.498182 46.062 
C 203.4826 46.062 179.70054 50.792546 157.513036 59.982911 
C 135.325531 69.173276 115.164074 82.644731 98.182494 99.626312 
C 81.200913 116.607892 67.729458 136.76935 58.539093 158.956854 
C 49.348728 181.144358 44.618182 204.926418 44.618182 228.942 
C 44.618182 252.957582 49.348728 276.739642 58.539093 298.927146 
C 67.729458 321.11465 81.200913 341.276108 98.182494 358.257688 
C 115.164074 375.239269 135.325531 388.710724 157.513036 397.901089 
C 179.70054 407.091454 203.4826 411.822 227.498182 411.822 
C 251.513763 411.822 275.295824 407.091454 297.483328 397.901089 
C 319.670832 388.710724 339.832289 375.239269 356.81387 358.257688 
C 373.795451 341.276108 387.266906 321.11465 396.457271 298.927146 
C 405.647636 276.739642 410.378182 252.957582 410.378182 228.942 
M 227.498182 228.942 
C 227.498182 228.942 227.498182 228.942 227.498182 228.942 
C 227.498182 228.942 227.498182 228.942 227.498182 228.942 
C 227.498182 228.942 227.498182 228.942 227.498182 228.942 
C 227.498182 228.942 227.498182 228.942 227.498182 228.942 
C 227.498182 228.942 227.498182 228.942 227.498182 228.942 
C 227.498182 228.942 227.498182 228.942 227.498182 228.942 
C 227.498182 228.942 227.498182 228.942 227.498182 228.942 
C 227.498182 228.942 227.498182 228.942 227.498182 228.942 
C 227.498182 228.942 227.498182 228.942 227.498182 228.942 
C 227.498182 228.942 227.498182 228.942 227.498182 228.942 
C 227.498182 228.942 227.498182 228.942 227.498182 228.942 
C 227.498182 228.942 227.498182 228.942 227.498182 228.942 
C 227.498182 228.942 227.498182 228.942 227.498182 228.942 
C 227.498182 228.942 227.498182 228.942 227.498182 228.942 
C 227.498182 228.942 227.498182 228.942 227.498182 228.942 
C 227.498182 228.942 227.498182 228.942 227.498182 228.942 
z
" style="fill: #ffffff"/>
   </g>
   <g id="line2d_1">
    <path d="M 227.498182 130.249161 
L 232.684958 130.38555 
L 237.857398 130.79434 
L 243.001206 131.474402 
L 248.102165 132.423855 
L 253.146177 133.640075 
L 258.1193 135.119702 
L 263.007789 136.858645 
L 267.798132 138.852098 
L 272.47709 141.094551 
L 277.031731 143.579807 
L 281.449465 146.300996 
L 285.718083 149.250597 
L 289.825786 152.420459 
L 293.761221 155.801819 
L 297.513511 159.385332 
L 301.072285 163.161093 
L 304.427707 167.118666 
L 307.570503 171.247114 
L 310.491986 175.535025 
L 313.184082 179.970549 
L 315.639349 184.541425 
L 317.851003 189.23502 
L 319.812929 194.038362 
L 321.519705 198.938174 
L 322.966615 203.920914 
L 324.149659 208.97281 
L 325.065566 214.079899 
L 325.711806 219.228066 
L 326.086592 224.403081 
L 326.188889 229.590641 
L 326.018414 234.776409 
L 325.575638 239.94605 
L 324.861784 245.085278 
L 323.878826 250.179887 
L 322.629481 255.215796 
L 321.117202 260.179087 
L 319.346168 265.056041 
L 317.321274 269.83318 
L 315.048118 274.497299 
L 312.532981 279.035507 
L 309.782816 283.435261 
L 306.805223 287.684401 
L 303.608433 291.771182 
L 300.201281 295.684309 
L 296.593185 299.412966 
L 292.794116 302.946848 
L 288.814575 306.276187 
L 284.66556 309.391781 
L 280.358541 312.28502 
L 275.90542 314.947906 
L 271.318506 317.373079 
L 266.610476 319.553836 
L 261.794344 321.484151 
L 256.88342 323.158688 
L 251.891278 324.572818 
L 246.831716 325.722633 
L 241.718717 326.604955 
L 236.566415 327.217346 
L 231.389048 327.558113 
L 226.200928 327.626313 
L 221.016393 327.421759 
L 215.849773 326.945016 
L 210.715348 326.197401 
L 205.627309 325.180981 
L 200.59972 323.898565 
L 195.646475 322.353698 
L 190.781266 320.550649 
L 186.017539 318.494402 
L 181.368461 316.190641 
L 176.846881 313.645732 
L 172.465296 310.866709 
L 168.235818 307.861255 
L 164.170136 304.637674 
L 160.279486 301.204877 
L 156.574623 297.572353 
L 153.065786 293.75014 
L 149.762674 289.748803 
L 146.674416 285.579402 
L 143.809547 281.25346 
L 141.175986 276.782934 
L 138.781012 272.18018 
L 136.631244 267.45792 
L 134.732624 262.629205 
L 133.0904 257.707381 
L 131.70911 252.706053 
L 130.592573 247.639043 
L 129.743874 242.520356 
L 129.165359 237.36414 
L 128.858627 232.184645 
L 128.824526 226.996189 
L 129.06315 221.81311 
L 129.57384 216.649735 
L 130.355184 211.520335 
L 131.405022 206.439086 
L 132.720453 201.420034 
L 134.297841 196.47705 
L 136.132827 191.623796 
L 138.220338 186.873686 
L 140.554605 182.239849 
L 143.129176 177.735093 
L 145.936936 173.371868 
L 148.970123 169.162233 
L 152.220355 165.117825 
L 155.678648 161.249821 
L 159.335444 157.568912 
L 163.180635 154.085272 
L 167.203595 150.808529 
L 171.393203 147.74774 
L 175.73788 144.911365 
L 180.225618 142.307242 
L 184.844013 139.942571 
L 189.580301 137.823885 
L 194.42139 135.957042 
L 199.3539 134.347201 
L 204.364199 132.998812 
L 209.438438 131.915601 
L 214.562592 131.100562 
L 219.722499 130.555948 
L 224.903897 130.283264 
L 227.498182 130.249161 
L 227.498182 130.249161 
" clip-path="url(#pf09ccdf601)" style="fill: none; stroke: #dce3ea; stroke-width: 0.55; stroke-linecap: square"/>
   </g>
   <g id="line2d_2">
    <path d="M 227.498182 79.411503 
L 235.356717 79.618148 
L 243.193532 80.23751 
L 250.986967 81.267878 
L 258.715481 82.706404 
L 266.357713 84.549111 
L 273.89254 86.790908 
L 281.299138 89.425598 
L 288.557035 92.445898 
L 295.646171 95.843461 
L 302.546952 99.608897 
L 309.240304 103.731797 
L 315.707729 108.200768 
L 321.931351 113.003456 
L 327.893968 118.126588 
L 333.5791 123.556004 
L 338.971034 129.276697 
L 344.054867 135.272856 
L 348.816548 141.527908 
L 353.242916 148.024565 
L 357.321736 154.74487 
L 361.041736 161.670249 
L 364.392634 168.781562 
L 367.365168 176.059152 
L 369.951122 183.482906 
L 372.143349 191.032305 
L 373.93579 198.686483 
L 375.323491 206.424284 
L 376.302615 214.224322 
L 376.870458 222.065039 
L 377.025449 229.924763 
L 376.76716 237.78177 
L 376.096305 245.614345 
L 375.014739 253.40084 
L 373.52545 261.119732 
L 371.632555 268.749688 
L 369.341285 276.269619 
L 366.657974 283.658741 
L 363.590037 290.896631 
L 360.145955 297.963284 
L 356.335247 304.839168 
L 352.168444 311.505279 
L 347.657065 317.943193 
L 342.813577 324.135115 
L 337.651367 330.063932 
L 332.184704 335.713258 
L 326.428697 341.067477 
L 320.399255 346.111792 
L 314.113043 350.832259 
L 307.587435 355.215833 
L 300.840467 359.250398 
L 293.890788 362.924802 
L 286.757606 366.22889 
L 279.460636 369.153529 
L 272.020047 371.690636 
L 264.456403 373.833198 
L 256.79061 375.575295 
L 249.043856 376.91211 
L 241.237551 377.839949 
L 233.393272 378.356247 
L 225.532699 378.459579 
L 217.677559 378.149657 
L 209.849562 377.427338 
L 202.070344 376.29462 
L 194.361406 374.754632 
L 186.744056 372.811631 
L 179.239346 370.470987 
L 171.868019 367.73917 
L 164.650449 364.62373 
L 157.606585 361.133279 
L 150.755895 357.277462 
L 144.117313 353.066938 
L 137.709188 348.513343 
L 131.549233 343.629264 
L 125.654471 338.4282 
L 120.041196 332.924526 
L 114.724923 327.133454 
L 109.720345 321.070989 
L 105.041294 314.753888 
L 100.700703 308.199611 
L 96.710569 301.426273 
L 93.08192 294.452594 
L 89.824785 287.297851 
L 86.948168 279.981817 
L 84.460017 272.524714 
L 82.367212 264.947152 
L 80.675535 257.270075 
L 79.389663 249.514701 
L 78.513149 241.702467 
L 78.048417 233.854964 
L 77.99675 225.993882 
L 78.358292 218.140948 
L 79.132043 210.317868 
L 80.315865 202.546262 
L 81.906485 194.847613 
L 83.899508 187.243197 
L 86.289424 179.754032 
L 89.069629 172.400819 
L 92.232437 165.203881 
L 95.769108 158.183109 
L 99.669867 151.357908 
L 103.923931 144.747143 
L 108.519543 138.369084 
L 113.444002 132.241362 
L 118.683696 126.38091 
L 124.224143 120.803929 
L 130.050031 115.525831 
L 136.145257 110.561206 
L 142.492973 105.923774 
L 149.075637 101.626353 
L 155.875053 97.680822 
L 162.872429 94.098085 
L 170.048425 90.888044 
L 177.383207 88.059571 
L 184.856502 85.620485 
L 192.447655 83.577527 
L 200.135685 81.936343 
L 207.899342 80.701469 
L 215.717168 79.876319 
L 223.567556 79.463173 
L 227.498182 79.411503 
L 227.498182 79.411503 
" clip-path="url(#pf09ccdf601)" style="fill: none; stroke: #dce3ea; stroke-width: 0.55; stroke-linecap: square"/>
   </g>
   <g id="patch_3">
    <path d="M 220.566131 198.820061 
C 222.839689 198.29684 225.165194 198.032704 227.498182 198.032704 
C 229.831169 198.032704 232.156674 198.29684 234.430233 198.820061 
L 261.432353 81.48737 
C 250.302699 78.92607 238.918754 77.633058 227.498182 77.633058 
C 216.07761 77.633058 204.693665 78.92607 193.56401 81.48737 
z
" clip-path="url(#pf09ccdf601)" style="fill: #1f4f75; stroke: #ffffff; stroke-width: 0.9; stroke-linejoin: miter"/>
   </g>
   <g id="patch_4">
    <path d="M 239.595266 200.498282 
C 241.742155 201.411351 243.778784 202.564559 245.66621 203.935854 
C 247.553636 205.30715 249.279755 206.887738 250.811561 208.647397 
L 335.34841 135.056957 
C 328.262108 126.916583 320.276897 119.604612 311.545457 113.26085 
C 302.814017 106.917087 293.392354 101.582224 283.460611 97.358264 
z
" clip-path="url(#pf09ccdf601)" style="fill: #2b638f; stroke: #ffffff; stroke-width: 0.9; stroke-linejoin: miter"/>
   </g>
   <g id="patch_5">
    <path d="M 254.003727 213.041036 
C 255.203908 215.041635 256.173736 217.1717 256.894669 219.390502 
C 257.615602 221.609305 258.083014 223.902614 258.28797 226.226581 
L 366.455139 216.687083 
C 365.530156 206.19882 363.420682 195.848919 360.167051 185.835271 
C 356.91342 175.821624 352.5365 166.208461 347.119981 157.179586 
z
" clip-path="url(#pf09ccdf601)" style="fill: #3976a3; stroke: #ffffff; stroke-width: 0.9; stroke-linejoin: miter"/>
   </g>
   <g id="patch_6">
    <path d="M 258.28797 231.657419 
C 258.083014 233.981386 257.615602 236.274695 256.894669 238.493498 
C 256.173736 240.7123 255.203908 242.842365 254.003727 244.842964 
L 338.813472 295.721249 
C 343.853869 287.319337 347.926856 278.37371 350.954556 269.055408 
C 353.982256 259.737106 355.945248 250.105899 356.806001 240.345939 
z
" clip-path="url(#pf09ccdf601)" style="fill: #4e88b2; stroke: #ffffff; stroke-width: 0.9; stroke-linejoin: miter"/>
   </g>
   <g id="patch_7">
    <path d="M 250.811561 249.236603 
C 249.279755 250.996262 247.553636 252.57685 245.66621 253.948146 
C 243.778784 255.319441 241.742155 256.472649 239.595266 257.385718 
L 278.279251 348.342872 
C 287.29145 344.509993 295.840796 339.669066 303.763823 333.91265 
C 311.68685 328.156233 318.932739 321.521251 325.362946 314.134566 
z
" clip-path="url(#pf09ccdf601)" style="fill: #6798ba; stroke: #ffffff; stroke-width: 0.9; stroke-linejoin: miter"/>
   </g>
   <g id="patch_8">
    <path d="M 234.430233 259.063939 
C 232.156674 259.58716 229.831169 259.851296 227.498182 259.851296 
C 225.165194 259.851296 222.839689 259.58716 220.566131 259.063939 
L 200.686364 345.447768 
C 209.480045 347.471483 218.474643 348.493108 227.498182 348.493108 
C 236.52172 348.493108 245.516319 347.471483 254.31 345.447768 
z
" clip-path="url(#pf09ccdf601)" style="fill: #7fa6c3; stroke: #ffffff; stroke-width: 0.9; stroke-linejoin: miter"/>
   </g>
   <g id="patch_9">
    <path d="M 215.401097 257.385718 
C 213.254208 256.472649 211.21758 255.319441 209.330154 253.948146 
C 207.442727 252.57685 205.716609 250.996262 204.184803 249.236603 
L 141.627865 303.693241 
C 147.269976 310.174604 153.627798 315.996393 160.579768 321.047295 
C 167.531738 326.098196 175.033263 330.345813 182.940914 333.708929 
z
" clip-path="url(#pf09ccdf601)" style="fill: #96b1c8; stroke: #ffffff; stroke-width: 0.9; stroke-linejoin: miter"/>
   </g>
   <g id="patch_10">
    <path d="M 200.992637 244.842964 
C 199.792456 242.842365 198.822627 240.7123 198.101695 238.493498 
C 197.380762 236.274695 196.913349 233.981386 196.708393 231.657419 
L 123.594911 238.105456 
C 124.286555 245.947919 125.863886 253.686924 128.296747 261.1745 
C 130.729608 268.662076 134.002393 275.850195 138.052525 282.601419 
z
" clip-path="url(#pf09ccdf601)" style="fill: #acbccb; stroke: #ffffff; stroke-width: 0.9; stroke-linejoin: miter"/>
   </g>
   <g id="patch_11">
    <path d="M 196.708393 226.226581 
C 196.913349 223.902614 197.380762 221.609305 198.101695 219.390502 
C 198.822627 217.1717 199.792456 215.041635 200.992637 213.041036 
L 142.598858 178.009976 
C 138.754585 184.418049 135.648149 191.240812 133.338946 198.34781 
C 131.029742 205.454808 129.532583 212.800455 128.876093 220.244303 
z
" clip-path="url(#pf09ccdf601)" style="fill: #bfc9d1; stroke: #ffffff; stroke-width: 0.9; stroke-linejoin: miter"/>
   </g>
   <g id="patch_12">
    <path d="M 204.184803 208.647397 
C 205.716609 206.887738 207.442727 205.30715 209.330154 203.935854 
C 211.21758 202.564559 213.254208 201.411351 215.401097 200.498282 
L 208.833377 185.055685 
C 205.520904 186.464477 202.378554 188.243781 199.466411 190.359577 
C 196.554267 192.475373 193.891009 194.91409 191.527558 197.629099 
z
" clip-path="url(#pf09ccdf601)" style="fill: #ced6dc; stroke: #ffffff; stroke-width: 0.9; stroke-linejoin: miter"/>
   </g>
   <g id="matplotlib.axis_1"/>
   <g id="matplotlib.axis_2"/>
   <g id="text_1">
    <text style="font-size: 7.3px; font-family: 'Arial', 'Helvetica', 'DejaVu Sans', sans-serif; text-anchor: start; fill: #1f252b" x="227.498182" y="71.131136" transform="rotate(-0 227.498182 71.131136)">CatBoost</text>
   </g>
   <g id="text_2">
    <text style="font-size: 7.3px; font-family: 'Arial', 'Helvetica', 'DejaVu Sans', sans-serif; text-anchor: middle; fill: #ffffff" x="227.498182" y="130.088074" transform="rotate(-0 227.498182 130.088074)">0.805</text>
   </g>
   <g id="text_3">
    <text style="font-size: 7.3px; font-family: 'Arial', 'Helvetica', 'DejaVu Sans', sans-serif; text-anchor: start; fill: #1f252b" x="321.366328" y="101.630745" transform="rotate(-0 321.366328 101.630745)">HistGB</text>
   </g>
   <g id="text_4">
    <text style="font-size: 7.3px; font-family: 'Arial', 'Helvetica', 'DejaVu Sans', sans-serif; text-anchor: middle; fill: #ffffff" x="283.876173" y="153.231516" transform="rotate(-0 283.876173 153.231516)">0.781</text>
   </g>
   <g id="text_5">
    <text style="font-size: 7.3px; font-family: 'Arial', 'Helvetica', 'DejaVu Sans', sans-serif; text-anchor: start; fill: #1f252b" x="379.380032" y="181.48147" transform="rotate(-0 379.380032 181.48147)">SVR (RBF)</text>
   </g>
   <g id="text_6">
    <text style="font-size: 7.3px; font-family: 'Arial', 'Helvetica', 'DejaVu Sans', sans-serif; text-anchor: middle; fill: #ffffff" x="316.79265" y="201.815632" transform="rotate(-0 316.79265 201.815632)">0.770</text>
   </g>
   <g id="text_7">
    <text style="font-size: 7.3px; font-family: 'Arial', 'Helvetica', 'DejaVu Sans', sans-serif; text-anchor: end; fill: #1f252b" x="379.380032" y="280.178569" transform="rotate(-0 379.380032 280.178569)">RF</text>
   </g>
   <g id="text_8">
    <text style="font-size: 7.3px; font-family: 'Arial', 'Helvetica', 'DejaVu Sans', sans-serif; text-anchor: middle; fill: #ffffff" x="311.449403" y="258.10657" transform="rotate(-0 311.449403 258.10657)">0.742</text>
   </g>
   <g id="text_9">
    <text style="font-size: 7.3px; font-family: 'Arial', 'Helvetica', 'DejaVu Sans', sans-serif; text-anchor: end; fill: #1f252b" x="321.366328" y="360.027583" transform="rotate(-0 321.366328 360.027583)">ExtraTrees</text>
   </g>
   <g id="text_10">
    <text style="font-size: 7.3px; font-family: 'Arial', 'Helvetica', 'DejaVu Sans', sans-serif; text-anchor: middle; fill: #ffffff" x="279.362826" y="302.214722" transform="rotate(-0 279.362826 302.214722)">0.742</text>
   </g>
   <g id="text_11">
    <text style="font-size: 7.3px; font-family: 'Arial', 'Helvetica', 'DejaVu Sans', sans-serif; text-anchor: end; fill: #1f252b" x="227.498182" y="390.527192" transform="rotate(-0 227.498182 390.527192)">MLP</text>
   </g>
   <g id="text_12">
    <text style="font-size: 7.3px; font-family: 'Arial', 'Helvetica', 'DejaVu Sans', sans-serif; text-anchor: middle; fill: #ffffff" x="227.498182" y="313.150711" transform="rotate(-0 227.498182 313.150711)">0.712</text>
   </g>
   <g id="text_13">
    <text style="font-size: 7.3px; font-family: 'Arial', 'Helvetica', 'DejaVu Sans', sans-serif; text-anchor: end; fill: #1f252b" x="133.630036" y="360.027583" transform="rotate(-0 133.630036 360.027583)">ElasticNet</text>
   </g>
   <g id="text_14">
    <text style="font-size: 7.3px; font-family: 'Arial', 'Helvetica', 'DejaVu Sans', sans-serif; text-anchor: middle; fill: #1f252b" x="181.05493" y="294.752816" transform="rotate(-0 181.05493 294.752816)">0.695</text>
   </g>
   <g id="text_15">
    <text style="font-size: 7.3px; font-family: 'Arial', 'Helvetica', 'DejaVu Sans', sans-serif; text-anchor: end; fill: #1f252b" x="75.616331" y="280.135795" transform="rotate(-0 75.616331 280.135795)">Ridge</text>
   </g>
   <g id="text_16">
    <text style="font-size: 7.3px; font-family: 'Arial', 'Helvetica', 'DejaVu Sans', sans-serif; text-anchor: middle; fill: #1f252b" x="157.614825" y="253.535643" transform="rotate(-0 157.614825 253.535643)">0.667</text>
   </g>
   <g id="text_17">
    <text style="font-size: 7.3px; font-family: 'Arial', 'Helvetica', 'DejaVu Sans', sans-serif; text-anchor: start; fill: #1f252b" x="75.616331" y="181.479759" transform="rotate(-0 75.616331 181.479759)">KRR</text>
   </g>
   <g id="text_18">
    <text style="font-size: 7.3px; font-family: 'Arial', 'Helvetica', 'DejaVu Sans', sans-serif; text-anchor: middle; fill: #1f252b" x="160.5393" y="209.072905" transform="rotate(-0 160.5393 209.072905)">0.651</text>
   </g>
   <g id="text_19">
    <text style="font-size: 7.3px; font-family: 'Arial', 'Helvetica', 'DejaVu Sans', sans-serif; text-anchor: start; fill: #1f252b" x="133.630036" y="101.630745" transform="rotate(-0 133.630036 101.630745)">kNN</text>
   </g>
   <g id="text_20">
    <text style="font-size: 7.3px; font-family: 'Arial', 'Helvetica', 'DejaVu Sans', sans-serif; text-anchor: middle; fill: #1f252b" x="203.609183" y="197.948778" transform="rotate(-0 203.609183 197.948778)">0.500</text>
   </g>
   <g id="text_21">
    <text style="font-weight: 700; font-size: 9px; font-family: 'Arial', 'Helvetica', 'DejaVu Sans', sans-serif; fill: #1f252b" transform="translate(195.496151 226.462641)">Polymer-group</text>
    <text style="font-weight: 700; font-size: 9px; font-family: 'Arial', 'Helvetica', 'DejaVu Sans', sans-serif; fill: #1f252b" transform="translate(197.736307 236.087297)">model checks</text>
   </g>
  </g>
  <g id="axes_2">
   <g id="patch_13">
    <path d="M 561.100744 194.754368 
L 623.051486 194.754368 
L 623.051486 132.803626 
L 561.100744 132.803626 
z
" clip-path="url(#p83df0675ba)" style="fill: #477294; stroke: #ffffff; stroke-linejoin: miter"/>
   </g>
   <g id="patch_14">
    <path d="M 637.277212 194.754368 
L 699.227954 194.754368 
L 699.227954 132.803626 
L 637.277212 132.803626 
z
" clip-path="url(#p83df0675ba)" style="fill: #436f92; stroke: #ffffff; stroke-linejoin: miter"/>
   </g>
   <g id="patch_15">
    <path d="M 713.45368 194.754368 
L 775.404422 194.754368 
L 775.404422 132.803626 
L 713.45368 132.803626 
z
" clip-path="url(#p83df0675ba)" style="fill: #f4f0df; stroke: #ffffff; stroke-linejoin: miter"/>
   </g>
   <g id="patch_16">
    <path d="M 561.100744 270.930836 
L 623.051486 270.930836 
L 623.051486 208.980094 
L 561.100744 208.980094 
z
" clip-path="url(#p83df0675ba)" style="fill: #98b2c6; stroke: #ffffff; stroke-linejoin: miter"/>
   </g>
   <g id="patch_17">
    <path d="M 637.277212 270.930836 
L 699.227954 270.930836 
L 699.227954 208.980094 
L 637.277212 208.980094 
z
" clip-path="url(#p83df0675ba)" style="fill: #93aec3; stroke: #ffffff; stroke-linejoin: miter"/>
   </g>
   <g id="patch_18">
    <path d="M 713.45368 270.930836 
L 775.404422 270.930836 
L 775.404422 208.980094 
L 713.45368 208.980094 
z
" clip-path="url(#p83df0675ba)" style="fill: #f4f0df; stroke: #ffffff; stroke-linejoin: miter"/>
   </g>
   <g id="patch_19">
    <path d="M 561.100744 347.107305 
L 623.051486 347.107305 
L 623.051486 285.156562 
L 561.100744 285.156562 
z
" clip-path="url(#p83df0675ba)" style="fill: #aec3d3; stroke: #ffffff; stroke-linejoin: miter"/>
   </g>
   <g id="patch_20">
    <path d="M 637.277212 347.107305 
L 699.227954 347.107305 
L 699.227954 285.156562 
L 637.277212 285.156562 
z
" clip-path="url(#p83df0675ba)" style="fill: #abc0d1; stroke: #ffffff; stroke-linejoin: miter"/>
   </g>
   <g id="patch_21">
    <path d="M 713.45368 347.107305 
L 775.404422 347.107305 
L 775.404422 285.156562 
L 713.45368 285.156562 
z
" clip-path="url(#p83df0675ba)" style="fill: #f4f0df; stroke: #ffffff; stroke-linejoin: miter"/>
   </g>
   <g id="text_22">
    <text style="font-weight: 700; font-size: 7.2px; font-family: 'Arial', 'Helvetica', 'DejaVu Sans', sans-serif; fill: #1f252b" transform="translate(578.97099 88.715135)">BASE +</text>
    <text style="font-weight: 700; font-size: 7.2px; font-family: 'Arial', 'Helvetica', 'DejaVu Sans', sans-serif; fill: #1f252b" transform="translate(575.673615 94.6712)">GENERIC</text>
   </g>
   <g id="text_23">
    <text style="font-size: 7.1px; font-family: 'Arial', 'Helvetica', 'DejaVu Sans', sans-serif; text-anchor: middle; fill: #5d6872" x="592.076115" y="111.201148" transform="rotate(-0 592.076115 111.201148)">R²</text>
   </g>
   <g id="text_24">
    <text style="font-weight: 700; font-size: 7.2px; font-family: 'Arial', 'Helvetica', 'DejaVu Sans', sans-serif; fill: #1f252b" transform="translate(637.744833 88.715135)">BASE + GENERIC</text>
    <text style="font-weight: 700; font-size: 7.2px; font-family: 'Arial', 'Helvetica', 'DejaVu Sans', sans-serif; fill: #1f252b" transform="translate(636.679458 94.6712)">+ AEM descriptors</text>
   </g>
   <g id="text_25">
    <text style="font-size: 7.1px; font-family: 'Arial', 'Helvetica', 'DejaVu Sans', sans-serif; text-anchor: middle; fill: #5d6872" x="668.252583" y="111.201148" transform="rotate(-0 668.252583 111.201148)">R²</text>
   </g>
   <g id="text_26">
    <text style="font-weight: 700; font-size: 7.2px; font-family: 'Arial', 'Helvetica', 'DejaVu Sans', sans-serif; fill: #1f252b" transform="translate(736.429176 88.715135)">AEM</text>
    <text style="font-weight: 700; font-size: 7.2px; font-family: 'Arial', 'Helvetica', 'DejaVu Sans', sans-serif; fill: #1f252b" transform="translate(727.224426 94.6712)">increment</text>
   </g>
   <g id="text_27">
    <text style="font-size: 7.1px; font-family: 'Arial', 'Helvetica', 'DejaVu Sans', sans-serif; text-anchor: middle; fill: #5d6872" x="744.429051" y="111.201148" transform="rotate(-0 744.429051 111.201148)">ΔR²</text>
   </g>
   <g id="text_28">
    <text style="font-size: 7.25px; font-family: 'Arial', 'Helvetica', 'DejaVu Sans', sans-serif; text-anchor: end; fill: #1f252b" x="546.416123" y="165.654935" transform="rotate(-0 546.416123 165.654935)">Polymer-group CV</text>
   </g>
   <g id="text_29">
    <text style="font-weight: 700; font-size: 8px; font-family: 'Arial', 'Helvetica', 'DejaVu Sans', sans-serif; text-anchor: middle; fill: #ffffff" x="592.076115" y="165.852747" transform="rotate(-0 592.076115 165.852747)">0.801</text>
   </g>
   <g id="text_30">
    <text style="font-weight: 700; font-size: 8px; font-family: 'Arial', 'Helvetica', 'DejaVu Sans', sans-serif; text-anchor: middle; fill: #ffffff" x="668.252583" y="165.852747" transform="rotate(-0 668.252583 165.852747)">0.805</text>
   </g>
   <g id="text_31">
    <text style="font-weight: 700; font-size: 8px; font-family: 'Arial', 'Helvetica', 'DejaVu Sans', sans-serif; text-anchor: middle; fill: #5d6872" x="744.429051" y="165.852747" transform="rotate(-0 744.429051 165.852747)">+0.004</text>
   </g>
   <g id="text_32">
    <text style="font-size: 7.25px; font-family: 'Arial', 'Helvetica', 'DejaVu Sans', sans-serif; text-anchor: end; fill: #1f252b" x="546.416123" y="241.831403" transform="rotate(-0 546.416123 241.831403)">Chemistry-family CV</text>
   </g>
   <g id="text_33">
    <text style="font-weight: 700; font-size: 8px; font-family: 'Arial', 'Helvetica', 'DejaVu Sans', sans-serif; text-anchor: middle; fill: #1f252b" x="592.076115" y="242.029215" transform="rotate(-0 592.076115 242.029215)">0.702</text>
   </g>
   <g id="text_34">
    <text style="font-weight: 700; font-size: 8px; font-family: 'Arial', 'Helvetica', 'DejaVu Sans', sans-serif; text-anchor: middle; fill: #1f252b" x="668.252583" y="242.029215" transform="rotate(-0 668.252583 242.029215)">0.707</text>
   </g>
   <g id="text_35">
    <text style="font-weight: 700; font-size: 8px; font-family: 'Arial', 'Helvetica', 'DejaVu Sans', sans-serif; text-anchor: middle; fill: #5d6872" x="744.429051" y="242.029215" transform="rotate(-0 744.429051 242.029215)">+0.005</text>
   </g>
   <g id="text_36">
    <text style="font-size: 7.25px; font-family: 'Arial', 'Helvetica', 'DejaVu Sans', sans-serif; text-anchor: end; fill: #1f252b" x="546.416123" y="318.006172" transform="rotate(-0 546.416123 318.006172)">Source-held-out CV</text>
   </g>
   <g id="text_37">
    <text style="font-weight: 700; font-size: 8px; font-family: 'Arial', 'Helvetica', 'DejaVu Sans', sans-serif; text-anchor: middle; fill: #1f252b" x="592.076115" y="318.205684" transform="rotate(-0 592.076115 318.205684)">0.675</text>
   </g>
   <g id="text_38">
    <text style="font-weight: 700; font-size: 8px; font-family: 'Arial', 'Helvetica', 'DejaVu Sans', sans-serif; text-anchor: middle; fill: #1f252b" x="668.252583" y="318.205684" transform="rotate(-0 668.252583 318.205684)">0.679</text>
   </g>
   <g id="text_39">
    <text style="font-weight: 700; font-size: 8px; font-family: 'Arial', 'Helvetica', 'DejaVu Sans', sans-serif; text-anchor: middle; fill: #5d6872" x="744.429051" y="318.205684" transform="rotate(-0 744.429051 318.205684)">+0.004</text>
   </g>
  </g>
  <g id="text_40">
   <text style="font-weight: 700; font-size: 12.9px; font-family: 'Arial', 'Helvetica', 'DejaVu Sans', sans-serif; text-anchor: start; fill: #1f252b" x="7.2" y="16.433578" transform="rotate(-0 7.2 16.433578)">Model checks and validation bounds</text>
  </g>
  <g id="text_41">
   <text style="font-weight: 700; font-size: 10.7px; font-family: 'Arial', 'Helvetica', 'DejaVu Sans', sans-serif; text-anchor: start; fill: #1f252b" x="13.982182" y="38.176059" transform="rotate(-0 13.982182 38.176059)">A</text>
  </g>
  <g id="text_42">
   <text style="font-weight: 700; font-size: 10.8px; font-family: 'Arial', 'Helvetica', 'DejaVu Sans', sans-serif; text-anchor: start; fill: #1f252b" x="44.618182" y="38.247637" transform="rotate(-0 44.618182 38.247637)">Fixed tabular model checks</text>
  </g>
  <g id="text_43">
   <text style="font-weight: 700; font-size: 10.7px; font-family: 'Arial', 'Helvetica', 'DejaVu Sans', sans-serif; text-anchor: start; fill: #1f252b" x="451.534909" y="38.176059" transform="rotate(-0 451.534909 38.176059)">B</text>
  </g>
  <g id="text_44">
   <text style="font-weight: 700; font-size: 10.8px; font-family: 'Arial', 'Helvetica', 'DejaVu Sans', sans-serif; text-anchor: start; fill: #1f252b" x="482.170909" y="38.379262" transform="rotate(-0 482.170909 38.379262)">Grouped-split AEM descriptor increment</text>
  </g>
 </g>
 <defs>
  <clipPath id="pf09ccdf601">
   <path d="M 410.378182 228.942 
C 410.378182 204.926418 405.647636 181.144358 396.457271 158.956854 
C 387.266906 136.76935 373.795451 116.607892 356.81387 99.626312 
C 339.832289 82.644731 319.670832 69.173276 297.483328 59.982911 
C 275.295824 50.792546 251.513763 46.062 227.498182 46.062 
C 203.4826 46.062 179.70054 50.792546 157.513036 59.982911 
C 135.325531 69.173276 115.164074 82.644731 98.182494 99.626312 
C 81.200913 116.607892 67.729458 136.76935 58.539093 158.956854 
C 49.348728 181.144358 44.618182 204.926418 44.618182 228.942 
C 44.618182 252.957582 49.348728 276.739642 58.539093 298.927146 
C 67.729458 321.11465 81.200913 341.276108 98.182494 358.257688 
C 115.164074 375.239269 135.325531 388.710724 157.513036 397.901089 
C 179.70054 407.091454 203.4826 411.822 227.498182 411.822 
C 251.513763 411.822 275.295824 407.091454 297.483328 397.901089 
C 319.670832 388.710724 339.832289 375.239269 356.81387 358.257688 
C 373.795451 341.276108 387.266906 321.11465 396.457271 298.927146 
C 405.647636 276.739642 410.378182 252.957582 410.378182 228.942 
M 227.498182 228.942 
C 227.498182 228.942 227.498182 228.942 227.498182 228.942 
C 227.498182 228.942 227.498182 228.942 227.498182 228.942 
C 227.498182 228.942 227.498182 228.942 227.498182 228.942 
C 227.498182 228.942 227.498182 228.942 227.498182 228.942 
C 227.498182 228.942 227.498182 228.942 227.498182 228.942 
C 227.498182 228.942 227.498182 228.942 227.498182 228.942 
C 227.498182 228.942 227.498182 228.942 227.498182 228.942 
C 227.498182 228.942 227.498182 228.942 227.498182 228.942 
C 227.498182 228.942 227.498182 228.942 227.498182 228.942 
C 227.498182 228.942 227.498182 228.942 227.498182 228.942 
C 227.498182 228.942 227.498182 228.942 227.498182 228.942 
C 227.498182 228.942 227.498182 228.942 227.498182 228.942 
C 227.498182 228.942 227.498182 228.942 227.498182 228.942 
C 227.498182 228.942 227.498182 228.942 227.498182 228.942 
C 227.498182 228.942 227.498182 228.942 227.498182 228.942 
C 227.498182 228.942 227.498182 228.942 227.498182 228.942 
z
"/>
  </clipPath>
  <clipPath id="p83df0675ba">
   <rect x="482.170909" y="79.571877" width="295.069091" height="298.740246"/>
  </clipPath>
 </defs>
</svg>
